<?xml version="1.0" encoding="UTF-8"?>
<svg width="18px" height="18px" viewBox="0 0 18 18" version="1.1" xmlns="http://www.w3.org/2000/svg" xmlns:xlink="http://www.w3.org/1999/xlink">
    <!-- Generator: Sketch 49.3 (51167) - http://www.bohemiancoding.com/sketch -->
    <title>call</title>
    <desc>Created with Sketch.</desc>
    <defs></defs>
    <g id="Page-1" stroke="none" stroke-width="1" fill="none" fill-rule="evenodd">
        <g id="Client:-Lee" transform="translate(-578.000000, -200.000000)" fill="#FFFFFF" fill-rule="nonzero">
            <g id="call" transform="translate(578.000000, 200.000000)">
                <path d="M8.98544444,0 C4.0232963,0 3.7037037e-05,4.02325926 3.7037037e-05,8.98540741 C3.7037037e-05,13.9474815 4.0232963,17.9708148 8.98544444,17.9708148 C13.9475926,17.9708148 17.9707778,13.9474444 17.9707778,8.98540741 C17.9708148,4.02325926 13.9475926,0 8.98544444,0 Z M13.7303333,13.1107037 L13.0108889,13.8302963 C12.8824444,13.9585556 12.5063333,14.0385926 12.4942593,14.0385926 C10.2182593,14.0584444 8.02681481,13.1644444 6.41666667,11.5541481 C4.80211111,9.93866667 3.90707407,7.73940741 3.93111111,5.45574074 C3.93111111,5.4547037 4.01348148,5.08937037 4.14181481,4.96225926 L4.86122222,4.24274074 C5.12448148,3.97825926 5.63018519,3.85874074 5.98444444,3.97725926 L6.13577778,4.02774074 C6.489,4.14614815 6.85985185,4.5367037 6.95744444,4.89651852 L7.31933333,6.22474074 C7.41692593,6.58559259 7.2852963,7.09896296 7.02211111,7.36222222 L6.54174074,7.84266667 C7.01337037,9.58866667 8.38333333,10.9588889 10.1296296,11.4316667 L10.6098148,10.9511111 C10.8742963,10.6866296 11.3874815,10.5551111 11.7475556,10.6525556 L13.0755926,11.0157407 C13.4354815,11.1146296 13.825963,11.4831481 13.9443333,11.8362593 L13.9948148,11.9897778 C14.1121481,12.343037 13.9935556,12.8486296 13.7303333,13.1107037 Z" id="Shape"></path>
            </g>
        </g>
    </g>
</svg>