<?xml version="1.0" encoding="UTF-8"?>
<svg width="16px" height="16px" viewBox="0 0 16 16" version="1.1" xmlns="http://www.w3.org/2000/svg" xmlns:xlink="http://www.w3.org/1999/xlink">
    <!-- Generator: Sketch 49.2 (51160) - http://www.bohemiancoding.com/sketch -->
    <title>client</title>
    <desc>Created with Sketch.</desc>
    <defs></defs>
    <g id="Page-1" stroke="none" stroke-width="1" fill="none" fill-rule="evenodd">
        <g id="TradeMate-Clients" transform="translate(-302.000000, -99.000000)" fill="#FFFFFF">
            <g id="client" transform="translate(298.000000, 95.000000)">
                <g transform="translate(4.941176, 4.941176)">
                    <path d="M0,14.1176471 L7.05882353,14.1176471 L7.05882353,0 L0,0 L0,14.1176471 Z M4.41176471,1.76470588 L6.17647059,1.76470588 L6.17647059,3.52941176 L4.41176471,3.52941176 L4.41176471,1.76470588 Z M4.41176471,5.29411765 L6.17647059,5.29411765 L6.17647059,7.05882353 L4.41176471,7.05882353 L4.41176471,5.29411765 Z M4.41176471,8.82352941 L6.17647059,8.82352941 L6.17647059,10.5882353 L4.41176471,10.5882353 L4.41176471,8.82352941 Z M0.882352941,1.76470588 L2.64705882,1.76470588 L2.64705882,3.52941176 L0.882352941,3.52941176 L0.882352941,1.76470588 Z M0.882352941,5.29411765 L2.64705882,5.29411765 L2.64705882,7.05882353 L0.882352941,7.05882353 L0.882352941,5.29411765 Z M0.882352941,8.82352941 L2.64705882,8.82352941 L2.64705882,10.5882353 L0.882352941,10.5882353 L0.882352941,8.82352941 Z" id="Shape" fill-rule="nonzero"></path>
                    <polygon id="Path" points="7.94117647 4.41176471 14.1176471 4.41176471 14.1176471 5.29411765 7.94117647 5.29411765"></polygon>
                    <polygon id="Path" points="7.94117647 14.1176471 9.70588235 14.1176471 9.70588235 10.5882353 12.3529412 10.5882353 12.3529412 14.1176471 14.1176471 14.1176471 14.1176471 6.17647059 7.94117647 6.17647059"></polygon>
                </g>
            </g>
        </g>
    </g>
</svg>