<?xml version="1.0" encoding="UTF-8"?>
<svg width="16px" height="13px" viewBox="0 0 16 13" version="1.1" xmlns="http://www.w3.org/2000/svg" xmlns:xlink="http://www.w3.org/1999/xlink">
    <!-- Generator: Sketch 49.2 (51160) - http://www.bohemiancoding.com/sketch -->
    <title>Shape</title>
    <desc>Created with Sketch.</desc>
    <defs></defs>
    <g id="Page-1" stroke="none" stroke-width="1" fill="none" fill-rule="evenodd">
        <g id="TradeMate-Clients" transform="translate(-149.000000, -101.000000)" fill="#FFFFFF" fill-rule="nonzero">
            <g id="dashboard" transform="translate(145.000000, 95.000000)">
                <g id="speedometer" transform="translate(4.000000, 6.000000)">
                    <path d="M14.4052329,8.4720335 C14.1482666,8.4720335 13.9399851,8.26172581 13.9399851,8.00232964 C13.9399851,7.74293347 14.1483286,7.53262578 14.4052329,7.53262578 L15.8533486,7.53268835 C15.750494,5.72389204 15.0548691,4.02841534 13.8607756,2.67596356 L12.8367223,3.70970001 C12.7458916,3.80140067 12.6267984,3.84726665 12.5077981,3.84726665 C12.3887048,3.84726665 12.2696425,3.80140067 12.1788119,3.70966872 C11.9971505,3.52623612 11.9971505,3.22885816 12.1788428,3.04536298 L13.2028341,2.01165782 C11.8631822,0.806127336 10.1837596,0.103839813 8.3921235,0 L8.3921235,1.46195444 C8.3921235,1.72135061 8.18381101,1.9316583 7.92687575,1.9316583 C7.66994049,1.9316583 7.46162801,1.72135061 7.46162801,1.46195444 L7.46162801,0 C5.66999189,0.103839813 3.99060031,0.806127336 2.65097935,2.0117204 L3.67493965,3.04542556 C3.85663202,3.22882688 3.85663202,3.52620483 3.67493965,3.70970001 C3.58407797,3.80143196 3.4650157,3.84729793 3.34595343,3.84729793 C3.22689117,3.84729793 3.1078289,3.80146324 3.01699821,3.70970001 L1.9930689,2.67599485 C0.798913398,4.02838405 0.103288532,5.72389204 0.000464844878,7.53268835 L1.44848763,7.53262578 C1.70542289,7.53262578 1.91373537,7.74290218 1.91373537,8.00232964 C1.91373537,8.26172581 1.70545388,8.4720335 1.44848763,8.4720335 L0,8.47209607 C0.0894051649,10.0496853 0.629059079,11.5416748 1.57452257,12.8124063 C1.66240924,12.9305127 1.80018927,13 1.94649144,13 L13.9072291,13 C14.0535622,13 14.1913423,12.9304815 14.2791979,12.8124063 C15.2246304,11.5416435 15.7642534,10.049654 15.8536585,8.47209607 L14.4052329,8.4720335 Z M10.8433745,5.72213999 L9.60199076,6.97544493 C9.78281541,7.27498165 9.88709562,7.62657906 9.88709562,8.00232964 C9.88709562,9.09357063 9.00773306,9.98135567 7.92687575,9.98135567 C6.84598745,9.98135567 5.9666249,9.09353934 5.9666249,8.00232964 C5.9666249,6.91108865 6.84601844,6.0233349 7.92687575,6.0233349 C8.29906155,6.0233349 8.64729235,6.12861389 8.94404932,6.31120176 L10.185464,5.05789683 C10.3671254,4.87449551 10.6617131,4.87449551 10.8434365,5.05789683 C11.0250669,5.24129815 11.0250669,5.53873867 10.8433745,5.72213999 Z" id="Shape"></path>
                </g>
            </g>
        </g>
    </g>
</svg>