<?xml version="1.0" encoding="UTF-8"?>
<svg width="183px" height="32px" viewBox="0 0 183 32" version="1.1" xmlns="http://www.w3.org/2000/svg" xmlns:xlink="http://www.w3.org/1999/xlink">
    <!-- Generator: Sketch 49.2 (51160) - http://www.bohemiancoding.com/sketch -->
    <title>Group 4</title>
    <desc>Created with Sketch.</desc>
    <defs></defs>
    <g id="Page-1" stroke="none" stroke-width="1" fill="none" fill-rule="evenodd">
        <g id="TradeMate-Clients" transform="translate(-141.000000, -20.000000)">
            <g id="Group-4" transform="translate(141.000000, 20.000000)">
                <text id="Trades-Mate" font-family="Ubuntu-Bold, Ubuntu" font-size="26" font-weight="bold" line-spacing="29" letter-spacing="-1.13">
                    <tspan x="47" y="25" fill="#5191FF">Trades </tspan>
                    <tspan x="128.088" y="25" font-family="Ubuntu-Light, Ubuntu" font-weight="300" fill="#99A4B8">Mat</tspan>
                    <tspan x="170.484" y="25" font-family="Ubuntu-Light, Ubuntu" font-weight="300" fill="#99A4B8">e</tspan>
                </text>
                <g id="flaticon1521723453-svg" fill-rule="nonzero">
                    <path d="M26.7232653,5.17497436 C26.6326531,5.08307692 26.52,5.01661538 26.3983673,4.97805128 L19.0718367,2.66584615 C16.1420408,1.74112821 14.2359184,3.35425641 13.722449,3.872 C13.4228571,4.17312821 13.1934694,4.49066667 13.0759184,4.76717949 L9.8122449,12.4832821 C9.62530612,12.9247179 9.68897959,13.5130256 9.98204082,14.0996923 C10.4016327,14.9374359 11.157551,15.5413333 12.0612245,15.7587692 C13.0726531,16.0024615 14.1216327,15.6717949 14.9428571,14.8471795 C15.157551,14.6313846 15.3404082,14.3934359 15.4481633,14.1915897 L16.5453061,12.1460513 C16.7257143,11.8071795 16.9877551,11.456 17.2636735,11.1786667 C18.204898,10.2317949 18.6522449,10.6650256 18.842449,10.8488205 C20.4840816,12.4414359 29.0906122,21.1290256 29.0906122,21.1290256 C29.3967347,21.4367179 29.3330612,22.0201026 28.9502041,22.4041026 C28.5681633,22.7872821 27.9869388,22.8529231 27.6816327,22.5468718 L25.2636735,20.1173333 C24.9518367,19.8030769 24.4489796,19.8030769 24.1371429,20.1173333 C23.8253061,20.4283077 23.8253061,20.9362051 24.1371429,21.2488205 L26.555102,23.68 C26.8604082,23.9860513 26.7967347,24.5694359 26.4146939,24.9526154 C26.0326531,25.3374359 25.4506122,25.4014359 25.1469388,25.0953846 L22.7281633,22.6658462 C22.4163265,22.3524103 21.9118367,22.3524103 21.6016327,22.6658462 C21.2897959,22.9768205 21.2897959,23.4847179 21.6016327,23.7981538 L24.0195918,26.2285128 C24.324898,26.5353846 24.2587755,27.1187692 23.877551,27.5027692 C23.4963265,27.8859487 22.9159184,27.9515897 22.6097959,27.6438974 L20.1918367,25.214359 C19.8816327,24.9017436 19.3763265,24.9017436 19.0653061,25.214359 C18.755102,25.5269744 18.755102,26.0348718 19.0653061,26.3458462 L21.4832653,28.7770256 C21.7893878,29.0847179 21.7240816,29.6681026 21.3428571,30.0521026 C20.9591837,30.4361026 20.3787755,30.5009231 20.0742857,30.1940513 L17.1306122,27.2328205 C17.5510204,26.5977436 17.4367347,25.6763077 16.8130612,25.0469744 C16.1142857,24.3454359 15.0391837,24.2806154 14.4171429,24.9074872 C15.0391837,24.2814359 14.9779592,23.2024615 14.277551,22.4992821 C13.5771429,21.7969231 12.5044898,21.7321026 11.882449,22.3573333 C12.5044898,21.7321026 12.4416327,20.6539487 11.7404082,19.9515897 C11.0416327,19.2475897 9.96897959,19.1835897 9.34530612,19.8088205 C9.96897959,19.1835897 9.9044898,18.1054359 9.20489796,17.4006154 C8.55020408,16.7425641 7.57469388,16.6531282 6.94040816,17.1544615 L2.17387755,12.3634872 C1.86285714,12.0500513 1.35755102,12.0500513 1.04653061,12.3634872 C0.736326531,12.6752821 0.736326531,13.1831795 1.04653061,13.4966154 L5.80081633,18.2744615 L4.39102041,19.6914872 C3.76897959,20.3158974 3.83183673,21.3940513 4.53306122,22.0988718 C5.23183673,22.8012308 6.3044898,22.8660513 6.92734694,22.24 C6.3044898,22.8660513 6.36816327,23.9433846 7.06857143,24.6473846 C7.76734694,25.3489231 8.84081633,25.4153846 9.46367347,24.7893333 C8.84081633,25.4153846 8.90367347,26.4927179 9.60408163,27.1958974 C10.3044898,27.8998974 11.3771429,27.9638974 11.9991837,27.3386667 C11.3771429,27.9630769 11.44,29.0404103 12.1404082,29.7452308 C12.84,30.4475897 13.9118367,30.5124103 14.5355102,29.886359 L16.0244898,28.3905641 L18.9477551,31.328 C19.8808163,32.2658462 21.4587755,32.2002051 22.4693878,31.1860513 C22.9616327,30.6912821 23.2244898,30.0594872 23.2612245,29.4342564 C23.8832653,29.3973333 24.5126531,29.1323077 25.0040816,28.6367179 C25.4971429,28.1419487 25.7616327,27.5101538 25.7991837,26.8849231 C26.4204082,26.848 27.0473469,26.5837949 27.5420408,26.0882051 C28.0342857,25.5926154 28.2979592,24.961641 28.3338776,24.3355897 C28.9567347,24.2994872 29.5853061,24.0352821 30.0783673,23.5380513 C31.0873469,22.5238974 31.1493878,20.9353846 30.2187755,19.9991795 L28.9861224,18.7593846 L34.0473469,13.6730256 C34.3583673,13.3612308 34.3583673,12.8533333 34.0473469,12.5407179 L26.7232653,5.17497436 Z" id="Shape" fill="#5191FF"></path>
                    <path d="M38.7183673,6.96533333 L32.2685714,0.482461538 C31.6465306,-0.143589744 30.6367347,-0.143589744 30.0138776,0.482461538 L27.7591837,2.74707692 C27.1371429,3.37230769 27.1371429,4.38728205 27.7591837,5.01251282 L34.2097959,11.4970256 C34.8326531,12.1222564 35.842449,12.1222564 36.4644898,11.4970256 L38.7183673,9.23158974 C39.3395918,8.60553846 39.3395918,7.5905641 38.7183673,6.96533333 Z M35.3330612,10.2670769 C34.6114286,10.2670769 34.0253061,9.67876923 34.0253061,8.95261538 C34.0253061,8.22646154 34.6114286,7.63733333 35.3330612,7.63733333 C36.0555102,7.63733333 36.6416327,8.22564103 36.6416327,8.95261538 C36.6408163,9.67794872 36.0555102,10.2670769 35.3330612,10.2670769 Z" id="Shape" fill="#99A4B8"></path>
                </g>
            </g>
        </g>
    </g>
</svg>