<?xml version="1.0" encoding="UTF-8"?>
<svg width="24px" height="20px" viewBox="0 0 24 20" version="1.1" xmlns="http://www.w3.org/2000/svg" xmlns:xlink="http://www.w3.org/1999/xlink">
    <!-- Generator: Sketch 49.3 (51167) - http://www.bohemiancoding.com/sketch -->
    <title>flaticon1521799628-svg</title>
    <desc>Created with Sketch.</desc>
    <defs></defs>
    <g id="Page-1" stroke="none" stroke-width="1" fill="none" fill-rule="evenodd">
        <g id="Client:-Lee" transform="translate(-503.000000, -641.000000)">
            <g id="Group-8" transform="translate(489.000000, 631.000000)">
                <g id="flaticon1521799628-svg" transform="translate(14.000000, 10.000000)">
                    <path d="M19.5300544,10.7096556 C19.5300544,10.6516495 19.5300544,10.6516495 19.5300544,10.5936435 L22.6623807,10.5936435 C23.3584532,10.5936435 23.9385136,10.0135831 23.9385136,9.31751057 L23.9385136,6.01116616 C23.9385136,5.31509366 23.3584532,4.73503323 22.6623807,4.73503323 L19.5300544,4.73503323 C19.5300544,4.67702719 19.5300544,4.67702719 19.5300544,4.61902115 L19.5300544,1.31267674 C19.5300544,0.61660423 18.949994,0.0365438066 18.2539215,0.0365438066 L10.4811118,0.0365438066 C10.1910816,0.0365438066 9.9590574,0.0945498489 9.78503927,0.268567976 C9.55301511,0.152555891 9.32099094,0.0365438066 9.08896677,0.0365438066 L1.3161571,0.0365438066 C0.620084592,0.0365438066 0.0400241692,0.61660423 0.0400241692,1.31267674 L0.0400241692,4.61902115 C0.0400241692,5.31509366 0.620084592,5.89515408 1.3161571,5.89515408 L4.44848338,5.89515408 C4.44848338,5.95316012 4.44848338,5.95316012 4.44848338,6.01116616 L4.44848338,9.31751057 C4.44848338,9.37551662 4.44848338,9.37551662 4.44848338,9.43352266 L1.3161571,9.43352266 C0.620084592,9.43352266 0.0400241692,10.0135831 0.0400241692,10.7096556 L0.0400241692,14.016 C0.0400241692,14.7120725 0.620084592,15.2921329 1.3161571,15.2921329 L4.44848338,15.2921329 C4.44848338,15.350139 4.44848338,15.350139 4.44848338,15.408145 L4.44848338,18.7144894 C4.44848338,19.4105619 5.02854381,19.9906224 5.72461631,19.9906224 L13.497426,19.9906224 C13.7874562,19.9906224 14.0194804,19.9326163 14.1934985,19.7585982 C14.4255227,19.8746103 14.6575468,19.9906224 14.889571,19.9906224 L22.6623807,19.9906224 C23.3584532,19.9906224 23.9385136,19.4105619 23.9385136,18.7144894 L23.9385136,15.408145 C23.9385136,14.7120725 23.3584532,14.1320121 22.6623807,14.1320121 L19.5300544,14.1320121 C19.5300544,14.074006 19.5300544,14.074006 19.5300544,14.016 L19.5300544,10.7096556 Z" id="Shape" fill="#5A73B5" fill-rule="nonzero"></path>
                    <path d="M10.4811118,1.13865861 L18.2539215,1.13865861 C18.3119275,1.13865861 18.3699335,1.19666465 18.3699335,1.25467069 L18.3699335,4.56101511 C18.3699335,4.61902115 18.3119275,4.67702719 18.2539215,4.67702719 L14.889571,4.67702719 L13.497426,4.67702719 L10.5391178,4.67702719 C10.4811118,4.67702719 10.4231057,4.61902115 10.4231057,4.56101511 L10.4231057,1.25467069 C10.3650997,1.19666465 10.4231057,1.13865861 10.4811118,1.13865861 Z" id="Path" fill="#C5CEE6"></path>
                    <path d="M10.4811118,5.95316012 L13.4394199,5.95316012 C13.497426,5.95316012 13.555432,6.01116616 13.555432,6.06917221 L13.555432,9.37551662 C13.555432,9.43352266 13.497426,9.4915287 13.4394199,9.4915287 L10.4811118,9.4915287 L9.08896677,9.4915287 L5.72461631,9.4915287 C5.66661027,9.4915287 5.60860423,9.43352266 5.60860423,9.37551662 L5.60860423,6.06917221 C5.60860423,6.01116616 5.66661027,5.95316012 5.72461631,5.95316012 L9.08896677,5.95316012 L10.4811118,5.95316012 Z" id="Path" fill="#C5CEE6"></path>
                    <path d="M1.3161571,4.73503323 C1.25815106,4.73503323 1.20014502,4.67702719 1.20014502,4.61902115 L1.20014502,1.31267674 C1.20014502,1.25467069 1.25815106,1.19666465 1.3161571,1.19666465 L9.08896677,1.19666465 C9.14697281,1.19666465 9.20497885,1.25467069 9.20497885,1.31267674 L9.20497885,4.61902115 C9.20497885,4.67702719 9.14697281,4.73503323 9.08896677,4.73503323 L5.72461631,4.73503323 L1.3161571,4.73503323 Z" id="Path" fill="#C5CEE6"></path>
                    <path d="M1.3161571,14.2480242 C1.25815106,14.2480242 1.20014502,14.1900181 1.20014502,14.1320121 L1.20014502,10.8256677 C1.20014502,10.7676616 1.25815106,10.7096556 1.3161571,10.7096556 L5.72461631,10.7096556 L9.08896677,10.7096556 C9.14697281,10.7096556 9.20497885,10.7676616 9.20497885,10.8256677 L9.20497885,14.1320121 C9.20497885,14.1900181 9.14697281,14.2480242 9.08896677,14.2480242 L5.72461631,14.2480242 L1.3161571,14.2480242 Z" id="Path" fill="#C5CEE6"></path>
                    <path d="M13.497426,19.0045196 L5.72461631,19.0045196 C5.66661027,19.0045196 5.60860423,18.9465136 5.60860423,18.8885076 L5.60860423,15.5821631 C5.60860423,15.5241571 5.66661027,15.4661511 5.72461631,15.4661511 L9.08896677,15.4661511 L10.4811118,15.4661511 L13.4394199,15.4661511 C13.497426,15.4661511 13.555432,15.5241571 13.555432,15.5821631 L13.555432,18.8885076 C13.6134381,18.9465136 13.555432,19.0045196 13.497426,19.0045196 Z" id="Path" fill="#C5CEE6"></path>
                    <path d="M13.497426,14.1900181 L10.5391178,14.1900181 C10.4811118,14.1900181 10.4231057,14.1320121 10.4231057,14.074006 L10.4231057,10.7676616 C10.4231057,10.7096556 10.4811118,10.6516495 10.5391178,10.6516495 L13.497426,10.6516495 L14.889571,10.6516495 L18.2539215,10.6516495 C18.3119275,10.6516495 18.3699335,10.7096556 18.3699335,10.7676616 L18.3699335,14.074006 C18.3699335,14.1320121 18.3119275,14.1900181 18.2539215,14.1900181 L14.889571,14.1900181 L13.497426,14.1900181 Z" id="Path" fill="#C5CEE6"></path>
                    <path d="M22.6623807,15.408145 C22.7203867,15.408145 22.7783927,15.4661511 22.7783927,15.5241571 L22.7783927,18.8305015 C22.7783927,18.8885076 22.7203867,18.9465136 22.6623807,18.9465136 L14.889571,18.9465136 C14.831565,18.9465136 14.7735589,18.8885076 14.7735589,18.8305015 L14.7735589,15.5241571 C14.7735589,15.4661511 14.831565,15.408145 14.889571,15.408145 L18.2539215,15.408145 L22.6623807,15.408145 Z" id="Path" fill="#C5CEE6"></path>
                    <path d="M18.2539215,9.4915287 L14.889571,9.4915287 C14.831565,9.4915287 14.7735589,9.43352266 14.7735589,9.37551662 L14.7735589,6.06917221 C14.7735589,6.01116616 14.831565,5.95316012 14.889571,5.95316012 L18.2539215,5.95316012 L22.6623807,5.95316012 C22.7203867,5.95316012 22.7783927,6.01116616 22.7783927,6.06917221 L22.7783927,9.37551662 C22.7783927,9.43352266 22.7203867,9.4915287 22.6623807,9.4915287 L18.2539215,9.4915287 Z" id="Path" fill="#C5CEE6"></path>
                </g>
            </g>
        </g>
    </g>
</svg>