<?xml version="1.0" encoding="UTF-8"?>
<svg width="18px" height="19px" viewBox="0 0 18 19" version="1.1" xmlns="http://www.w3.org/2000/svg" xmlns:xlink="http://www.w3.org/1999/xlink">
    <!-- Generator: Sketch 49.3 (51167) - http://www.bohemiancoding.com/sketch -->
    <title>@</title>
    <desc>Created with Sketch.</desc>
    <defs></defs>
    <g id="Page-1" stroke="none" stroke-width="1" fill="none" fill-rule="evenodd">
        <g id="Client:-Lee" transform="translate(-363.000000, -199.000000)" fill="#FFFFFF" fill-rule="nonzero">
            <g id="@" transform="translate(363.000000, 199.000000)">
                <path d="M15.4848049,2.28418891 C13.8326489,0.761396304 11.7776181,0 9.32340862,0 C6.74353183,0 4.54435318,0.864887064 2.72956879,2.59835729 C0.914784394,4.33182752 0.00554414784,6.48665298 0.00554414784,9.06652977 C0.00554414784,11.5392197 0.870431211,13.6644764 2.59650924,15.4459959 C4.32997947,17.2275154 6.65852156,18.1182752 9.58952772,18.1182752 C11.3562628,18.1182752 13.0897331,17.7560575 14.7899384,17.0279261 C15.3443532,16.7913758 15.6141684,16.1556468 15.3887064,15.5975359 C15.1558522,15.0209446 14.4979466,14.7548255 13.9250513,14.998768 C12.4466119,15.6344969 10.9977413,15.9523614 9.58583162,15.9523614 C7.3386037,15.9523614 5.59774127,15.2685832 4.36324435,13.8973306 C3.13244353,12.5297741 2.51519507,10.9219713 2.51519507,9.07761807 C2.51519507,7.07433265 3.17679671,5.4036961 4.4963039,4.06201232 C5.81211499,2.72402464 7.43470226,2.0513347 9.35667351,2.0513347 C11.1271047,2.0513347 12.6240246,2.60205339 13.8437372,3.70349076 C15.0634497,4.80492813 15.673306,6.19096509 15.673306,7.86160164 C15.673306,9.0036961 15.3924025,9.95728953 14.8342916,10.7149897 C14.2761807,11.476386 13.6958932,11.8533881 13.0934292,11.8533881 C12.7681725,11.8533881 12.6055441,11.6796715 12.6055441,11.3285421 C12.6055441,11.0439425 12.6277207,10.7112936 12.6683778,10.3268994 L13.3558522,4.70513347 L10.9903491,4.70513347 L10.838809,5.25585216 C10.236345,4.76427105 9.57474333,4.51663244 8.85770021,4.51663244 C7.71930185,4.51663244 6.74353183,4.97125257 5.93408624,5.87679671 C5.12094456,6.78234086 4.71806982,7.95030801 4.71806982,9.37700205 C4.71806982,10.7704312 5.07659138,11.8977413 5.7973306,12.75154 C6.51806982,13.6090349 7.38295688,14.0340862 8.39568789,14.0340862 C9.30123203,14.0340862 10.0737166,13.6533881 10.7168378,12.8956879 C11.2010267,13.6238193 11.9143737,13.986037 12.8568789,13.986037 C14.2429158,13.986037 15.4404517,13.3835729 16.4494867,12.1749487 C17.4585216,10.9700205 17.9648871,9.5137577 17.9648871,7.80985626 C17.9648871,5.6513347 17.1406571,3.80698152 15.4848049,2.28418891 Z M10.0367556,10.7889117 C9.61909651,11.3507187 9.1201232,11.6353183 8.53983573,11.6353183 C8.14435318,11.6353183 7.82648871,11.4283368 7.5862423,11.0143737 C7.34229979,10.6004107 7.22032854,10.086653 7.22032854,9.46940452 C7.22032854,8.70800821 7.39034908,8.09445585 7.73039014,7.62874743 C8.07043121,7.16303901 8.49178645,6.92648871 8.99445585,6.92648871 C9.43059548,6.92648871 9.81868583,7.10020534 10.1587269,7.4513347 C10.498768,7.80246407 10.6687885,8.26817248 10.6687885,8.85215606 C10.6650924,9.58028747 10.4544148,10.2234086 10.0367556,10.7889117 Z" id="Shape"></path>
            </g>
        </g>
    </g>
</svg>