<?xml version="1.0" encoding="UTF-8"?>
<svg width="20px" height="18px" viewBox="0 0 20 18" version="1.1" xmlns="http://www.w3.org/2000/svg" xmlns:xlink="http://www.w3.org/1999/xlink">
    <!-- Generator: Sketch 49.3 (51167) - http://www.bohemiancoding.com/sketch -->
    <title>back</title>
    <desc>Created with Sketch.</desc>
    <defs></defs>
    <g id="Page-1" stroke="none" stroke-width="1" fill="none" fill-rule="evenodd">
        <g id="workitems" transform="translate(-148.000000, -149.000000)" fill="#99A4B8" fill-rule="nonzero">
            <g id="back" transform="translate(148.000000, 149.000000)">
                <path d="M19.3945312,8.07976563 C18.1898047,5.0834375 14.9370313,3.58523438 9.63582031,3.58523438 L7.13765625,3.58523438 L7.13765625,0.730195313 C7.13765625,0.536757813 7.06699219,0.369453125 6.92578125,0.228242188 C6.78449219,0.086953125 6.61734375,0.0162890625 6.42394531,0.0162890625 C6.23050781,0.0162890625 6.06320312,0.086953125 5.92199219,0.228242188 L0.211875,5.93832031 C0.0706640625,6.07972656 0,6.24695313 0,6.44027344 C0,6.63355469 0.0706640625,6.80078125 0.211875,6.94210938 L5.92203125,12.6523438 C6.06339844,12.7934766 6.23070312,12.864375 6.42398437,12.864375 C6.61722656,12.864375 6.78449219,12.7935156 6.92582031,12.6523438 C7.06707031,12.5111719 7.13769531,12.3438281 7.13769531,12.1504687 L7.13769531,9.29523437 L9.63585938,9.29523437 C10.3643359,9.29523437 11.0166797,9.31742187 11.5928516,9.36195312 C12.1689844,9.40660156 12.7417969,9.48652344 13.3103516,9.60191406 C13.8792578,9.71714844 14.3737891,9.875 14.7939063,10.0759375 C15.2139453,10.276875 15.6061719,10.5351562 15.9705469,10.8510156 C16.3349609,11.1671875 16.6323828,11.5424219 16.8630078,11.9775391 C17.0933203,12.4125391 17.2736719,12.9271875 17.4038672,13.5220312 C17.5337891,14.1169141 17.5990625,14.7898437 17.5990625,15.5405859 C17.5990625,15.9494141 17.5803516,16.4068359 17.5432813,16.9123828 C17.5432813,16.9567969 17.5340625,17.0442187 17.5153516,17.1744141 C17.496875,17.3046094 17.4875391,17.4030078 17.4875391,17.4698047 C17.4875391,17.5811719 17.5191016,17.6741797 17.5821875,17.7485547 C17.6455469,17.8228516 17.7329688,17.8599219 17.8444531,17.8599219 C17.9634375,17.8599219 18.0674219,17.7968359 18.1567188,17.6703516 C18.2085938,17.6035156 18.2567578,17.5216797 18.3016406,17.4249219 C18.3462891,17.3283984 18.3965625,17.2169141 18.4521875,17.0904687 C18.5080859,16.9640234 18.5471094,16.8751172 18.5692969,16.8229687 C19.5134375,14.7042969 19.985625,13.0277344 19.985625,11.7934375 C19.9855469,10.3140234 19.7886328,9.0759375 19.3945312,8.07976563 Z" id="Shape"></path>
            </g>
        </g>
    </g>
</svg>