<?xml version="1.0" encoding="UTF-8"?>
<svg width="22px" height="22px" viewBox="0 0 22 22" version="1.1" xmlns="http://www.w3.org/2000/svg" xmlns:xlink="http://www.w3.org/1999/xlink">
    <!-- Generator: Sketch 49.3 (51167) - http://www.bohemiancoding.com/sketch -->
    <title>google map</title>
    <desc>Created with Sketch.</desc>
    <defs></defs>
    <g id="Page-1" stroke="none" stroke-width="1" fill="none" fill-rule="evenodd">
        <g id="Client:-Lee" transform="translate(-644.000000, -490.000000)" fill-rule="nonzero">
            <g id="google-map" transform="translate(644.000000, 490.000000)">
                <path d="M19.413668,10.2928203 L19.413668,19.6451406 L16.4745195,19.1011133 L15.1787539,17.5467617 L9.71914453,11.4772539 L14.3544414,8.18374219 C16.6763438,11.2485313 16.7495625,10.5013906 16.7495625,10.5013906 C16.7495625,10.5013906 17.8964844,8.78908594 19.3679063,10.2604648 L19.413668,10.2928203 Z" id="Shape" fill="#CCCCCC"></path>
                <path d="M8.19444141,9.58654297 L17.8328047,21.9914492 C17.7766875,21.9969492 17.7199688,22 17.6626484,22 L1.9050625,22 L8.19444141,9.58654297 Z" id="Shape" fill="#518EF8"></path>
                <path d="M14.3544844,8.18374219 L0.0192070313,20.2489375 L0.0192070313,4.35655859 C0.0192070313,3.38924609 0.803558594,2.60549609 1.77026953,2.60549609 L12.2240937,2.60549609 C11.7751992,3.37704297 13.4396367,3.87225781 13.4396367,4.82921484 C13.4396367,5.79231641 13.9001328,7.40854297 14.3544844,8.18374219 Z" id="Shape" fill="#28B446"></path>
                <path d="M19.413668,19.6451406 L19.413668,20.2489375 C19.413668,21.1583281 18.7201953,21.9060703 17.8328047,21.9914492 L9.76735547,14.0321758 L11.7196836,12.0536367 L16.2256875,16.4998711 L16.4745195,16.7456523 L19.413668,19.6451406 Z" id="Shape" fill="#F2F2F2"></path>
                <path d="M13.8580234,9.88659375 L11.7196836,12.0535937 L9.76735547,14.0321328 L1.9050625,22 L1.77026953,22 C0.803558594,22 0.0192070313,21.2156484 0.0192070313,20.2489375 L12.2332461,7.87144531 C12.4619688,8.26301953 14.0349258,7.86654688 14.3545273,8.18369922 L14.9419102,8.93874609 C15.2285547,9.24438281 13.6116406,9.56213672 13.8580234,9.88659375 Z" id="Shape" fill="#FFD837"></path>
                <path d="M4.59353125,9.78720703 C3.05490625,9.78720703 1.80318359,8.53548438 1.80318359,6.99685938 C1.80318359,5.45823438 3.05490625,4.20651172 4.59353125,4.20651172 C5.33835156,4.20651172 6.03887109,4.49689453 6.56622656,5.02420703 L5.91924609,5.67105859 C5.56483984,5.31656641 5.09398828,5.12135938 4.59353125,5.12135938 C3.55935937,5.12135938 2.71807422,5.9626875 2.71807422,6.99681641 C2.71807422,8.03094531 3.55940234,8.87227344 4.59353125,8.87227344 C5.46992187,8.87227344 6.20791016,8.26804688 6.41257031,7.45421875 L4.59353125,7.45421875 L4.59353125,6.53937109 L7.38387891,6.53937109 L7.38387891,6.99681641 C7.38383594,8.53548438 6.13215625,9.78720703 4.59353125,9.78720703 Z" id="Shape" fill="#FFFFFF"></path>
                <path d="M12.2240938,2.60553906 C13.1297891,1.04783594 14.8174297,0 16.7496055,0 C19.6387383,0 21.980793,2.34205469 21.980793,5.2311875 C21.980793,5.95576953 21.8331953,6.64554687 21.5672617,7.27314844 C21.3007266,7.90075 20.9152539,8.46553125 20.4395469,8.93878906 C20.0431172,9.36022656 19.6875508,9.80546875 19.3679492,10.2604648 C17.274125,13.2435273 16.7496055,16.6492734 16.7496055,16.6492734 C16.7496055,16.6492734 16.1799688,12.9513828 13.8580234,9.88659375 C13.6116406,9.56213672 13.345707,9.24433984 13.0590625,8.93878906 L13.0596641,8.93878906 C12.7400625,8.62163672 12.4619688,8.26301953 12.2332461,7.87144531 C11.7788516,7.09624609 11.518418,6.19420313 11.518418,5.23114453 C11.518418,4.27423047 11.7751992,3.37704297 12.2240938,2.60553906 Z" id="Shape" fill="#F14336"></path>
                <path d="M16.7496484,2.44694141 C18.2871133,2.44694141 19.533207,3.69376563 19.533207,5.23123047 C19.533207,6.76869531 18.2871133,8.01478906 16.7496484,8.01478906 C15.2121836,8.01478906 13.9653594,6.76869531 13.9653594,5.23123047 C13.9653594,3.69376563 15.2122266,2.44694141 16.7496484,2.44694141 Z" id="Shape" fill="#7E2D25"></path>
            </g>
        </g>
    </g>
</svg>