<?xml version="1.0" encoding="UTF-8"?>
<svg width="20px" height="16px" viewBox="0 0 20 16" version="1.1" xmlns="http://www.w3.org/2000/svg" xmlns:xlink="http://www.w3.org/1999/xlink">
    <!-- Generator: Sketch 49.3 (51167) - http://www.bohemiancoding.com/sketch -->
    <title>flaticon1524744463-svg</title>
    <desc>Created with Sketch.</desc>
    <defs></defs>
    <g id="Page-1" stroke="none" stroke-width="1" fill="none" fill-rule="evenodd">
        <g id="flaticon1524744463-svg" fill="#5191FF" fill-rule="nonzero">
            <path d="M18.2073684,15.7089655 C18.6567695,15.7089655 19.0461706,15.5605808 19.3772051,15.2675862 L13.7129946,9.60315789 C13.5770962,9.70047187 13.4453721,9.79509982 13.3209437,9.88508167 C12.8970599,10.1973866 12.5530309,10.4410889 12.2888566,10.6157169 C12.0247187,10.7907441 11.6732849,10.969147 11.2345917,11.1512886 C10.795608,11.3336479 10.3866425,11.4245372 10.0072595,11.4245372 L9.99615245,11.4245372 L9.98504537,11.4245372 C9.60562613,11.4245372 9.19666062,11.3336842 8.75771325,11.1512886 C8.31876588,10.969147 7.96733212,10.7907441 7.70344828,10.6157169 C7.43931034,10.4410889 7.09546279,10.1974229 6.67136116,9.88508167 C6.55317604,9.7984392 6.42210526,9.70337568 6.28039927,9.60163339 L0.615099819,15.2675862 C0.946098004,15.5605808 1.33575318,15.7089655 1.78511797,15.7089655 L18.2073684,15.7089655 Z" id="Shape"></path>
            <path d="M1.12693285,6.03626134 C0.703085299,5.75368421 0.32722323,5.43005445 0,5.06551724 L0,13.6834846 L4.99241379,8.69107078 C3.99364791,7.9937931 2.70678766,7.10987296 1.12693285,6.03626134 Z" id="Shape"></path>
            <path d="M18.8769147,6.03626134 C17.357314,7.06479129 16.0657713,7.95023593 15.0021416,8.69306715 L19.992559,13.6837024 L19.992559,5.06551724 C19.6725953,5.42272232 19.3007623,5.7461343 18.8769147,6.03626134 Z" id="Shape"></path>
            <path d="M18.2073684,0.000471869328 L1.78515426,0.000471869328 C1.2122323,0.000471869328 0.771760436,0.193938294 0.463194192,0.580471869 C0.154373866,0.967186933 0.000217785844,1.4508167 0.000217785844,2.0308167 C0.000217785844,2.49931034 0.204791289,3.00693285 0.613756806,3.5538294 C1.02272232,4.10050817 1.45789474,4.52990926 1.91905626,4.84225045 C2.17186933,5.02087114 2.93426497,5.55088929 4.20624319,6.43212341 C4.89288566,6.90794918 5.49001815,7.32268603 6.00315789,7.68058076 C6.44054446,7.98533575 6.81774955,8.2492559 7.1291833,8.46827586 C7.16493648,8.49335753 7.22116152,8.53357532 7.29578947,8.58693285 C7.37618875,8.6446824 7.47793103,8.71796733 7.60344828,8.80860254 C7.84515426,8.98341198 8.04595281,9.12471869 8.20588022,9.23266788 C8.36558984,9.34065336 8.55909256,9.46127042 8.786098,9.59520871 C9.01292196,9.72896552 9.22686025,9.82954628 9.4276588,9.89644283 C9.62849365,9.96330309 9.81441016,9.99684211 9.98544465,9.99684211 L9.99655172,9.99684211 L10.0076588,9.99684211 C10.178657,9.99684211 10.3646098,9.96330309 10.5654809,9.89644283 C10.7662432,9.82954628 10.98,9.7291833 11.2070054,9.59520871 C11.4337931,9.46127042 11.6270417,9.34039927 11.7872595,9.23266788 C11.9471869,9.12471869 12.1479855,8.98344828 12.3897278,8.80860254 C12.5149909,8.71796733 12.6167332,8.6446461 12.6971325,8.58711434 C12.7717967,8.53353902 12.8279855,8.49357532 12.8639564,8.46827586 C13.1065699,8.29945554 13.4846461,8.03662432 13.9929583,7.68366606 C14.9178947,7.04101633 16.2800726,6.09513612 18.0852269,4.84225045 C18.6281307,4.463049 19.081706,4.00544465 19.4462432,3.47009074 C19.810127,2.93473684 19.992559,2.37317604 19.992559,1.78558984 C19.992559,1.29466425 19.8156806,0.874591652 19.462686,0.524718693 C19.1092922,0.175281307 18.6908167,0.000471869328 18.2073684,0.000471869328 Z" id="Shape"></path>
        </g>
    </g>
</svg>