<?xml version="1.0" encoding="UTF-8"?>
<svg width="184px" height="32px" viewBox="0 0 184 32" version="1.1" xmlns="http://www.w3.org/2000/svg" xmlns:xlink="http://www.w3.org/1999/xlink">
    <!-- Generator: Sketch 50.2 (55047) - http://www.bohemiancoding.com/sketch -->
    <title>logoTM</title>
    <desc>Created with Sketch.</desc>
    <defs></defs>
    <g id="Page-1" stroke="none" stroke-width="1" fill="none" fill-rule="evenodd">
        <g id="workitems" transform="translate(-141.000000, -20.000000)">
            <g id="logoTM" transform="translate(141.000000, 20.000000)">
                <path d="M62.444,7.982 L62.444,11.44 L57.01,11.44 L57.01,26 L52.954,26 L52.954,11.44 L47.52,11.44 L47.52,7.982 L62.444,7.982 Z M70.102,15.756 C69.7553316,15.6693329 69.3480023,15.5783338 68.88,15.483 C68.4119977,15.3876662 67.909336,15.34 67.372,15.34 C67.1293321,15.34 66.8390017,15.3616665 66.501,15.405 C66.1629983,15.4483336 65.9073342,15.4959997 65.734,15.548 L65.734,26 L61.86,26 L61.86,13.052 C62.5533368,12.8093321 63.3723286,12.5796678 64.317,12.363 C65.2616714,12.1463323 66.3146609,12.038 67.476,12.038 C67.684001,12.038 67.9353319,12.0509999 68.23,12.077 C68.5246681,12.1030001 68.8193319,12.1376665 69.114,12.181 C69.4086681,12.2243336 69.7033319,12.276333 69.998,12.337 C70.2926681,12.397667 70.543999,12.4713329 70.752,12.558 L70.102,15.756 Z M76.668,23.296 C77.0493352,23.296 77.4133316,23.2873334 77.76,23.27 C78.1066684,23.2526666 78.383999,23.2266668 78.592,23.192 L78.592,20.254 C78.4359992,20.2193332 78.2020016,20.1846668 77.89,20.15 C77.5779984,20.1153332 77.2920013,20.098 77.032,20.098 C76.6679982,20.098 76.3256683,20.1196665 76.005,20.163 C75.6843317,20.2063336 75.4026679,20.2886661 75.16,20.41 C74.9173321,20.5313339 74.7266674,20.695999 74.588,20.904 C74.4493326,21.112001 74.38,21.3719984 74.38,21.684 C74.38,22.2906697 74.5836646,22.7109988 74.991,22.945 C75.3983354,23.1790012 75.9573298,23.296 76.668,23.296 Z M76.356,11.96 C77.5000057,11.96 78.4533295,12.0899987 79.216,12.35 C79.9786705,12.6100013 80.5896644,12.9826642 81.049,13.468 C81.5083356,13.9533358 81.8333324,14.5426632 82.024,15.236 C82.2146676,15.9293368 82.31,16.7006624 82.31,17.55 L82.31,25.61 C81.7553306,25.7313339 80.9840049,25.8743325 79.996,26.039 C79.0079951,26.2036675 77.812007,26.286 76.408,26.286 C75.5239956,26.286 74.7223369,26.2080008 74.003,26.052 C73.2836631,25.8959992 72.6640026,25.6403351 72.144,25.285 C71.6239974,24.9296649 71.2253347,24.4660029 70.948,23.894 C70.6706653,23.3219971 70.532,22.6200042 70.532,21.788 C70.532,20.9906627 70.6923317,20.3146694 71.013,19.76 C71.3336683,19.2053306 71.762664,18.763335 72.3,18.434 C72.837336,18.104665 73.4526632,17.8663341 74.146,17.719 C74.8393368,17.5716659 75.5586629,17.498 76.304,17.498 C76.8066692,17.498 77.2529981,17.5196665 77.643,17.563 C78.033002,17.6063336 78.3493321,17.6626663 78.592,17.732 L78.592,17.368 C78.592,16.70933 78.3926687,16.1806687 77.994,15.782 C77.5953313,15.3833313 76.9020049,15.184 75.914,15.184 C75.25533,15.184 74.6053365,15.2316662 73.964,15.327 C73.3226635,15.4223338 72.7680023,15.5566658 72.3,15.73 L71.806,12.61 C72.0313345,12.5406663 72.3129983,12.4670004 72.651,12.389 C72.9890017,12.3109996 73.3573313,12.241667 73.756,12.181 C74.1546687,12.120333 74.5749978,12.0683336 75.017,12.025 C75.4590022,11.9816665 75.9053311,11.96 76.356,11.96 Z M87.992,19.058 C87.992,20.254006 88.260664,21.2159964 88.798,21.944 C89.335336,22.6720036 90.1326614,23.036 91.19,23.036 C91.5366684,23.036 91.8573319,23.0230001 92.152,22.997 C92.4466682,22.9709999 92.6893324,22.9406668 92.88,22.906 L92.88,15.86 C92.6373321,15.7039992 92.321002,15.5740005 91.931,15.47 C91.5409981,15.3659995 91.1466687,15.314 90.748,15.314 C88.9106575,15.314 87.992,16.5619875 87.992,19.058 Z M96.754,25.558 C96.4073316,25.6620005 96.0086689,25.7616662 95.558,25.857 C95.1073311,25.9523338 94.6350025,26.0346663 94.141,26.104 C93.6469975,26.1733337 93.1443359,26.2296665 92.633,26.273 C92.1216641,26.3163336 91.6320024,26.338 91.164,26.338 C90.0373277,26.338 89.0320044,26.173335 88.148,25.844 C87.2639956,25.514665 86.5186697,25.0423364 85.912,24.427 C85.3053303,23.8116636 84.8416683,23.0663377 84.521,22.191 C84.2003317,21.3156623 84.04,20.3320055 84.04,19.24 C84.04,18.1306611 84.1786653,17.1296711 84.456,16.237 C84.7333347,15.3443289 85.1319974,14.5860031 85.652,13.962 C86.1720026,13.3379969 86.8089962,12.861335 87.563,12.532 C88.3170038,12.202665 89.1793285,12.038 90.15,12.038 C90.687336,12.038 91.1683312,12.0899995 91.593,12.194 C92.0176688,12.2980005 92.4466645,12.4453324 92.88,12.636 L92.88,6.448 L96.754,5.824 L96.754,25.558 Z M98.614,19.266 C98.614,18.0526606 98.8003315,16.9910046 99.173,16.081 C99.5456685,15.1709955 100.03533,14.4126697 100.642,13.806 C101.24867,13.1993303 101.946329,12.7400016 102.735,12.428 C103.523671,12.1159984 104.333996,11.96 105.166,11.96 C107.107343,11.96 108.641328,12.5536607 109.768,13.741 C110.894672,14.9283393 111.458,16.6746551 111.458,18.98 C111.458,19.2053345 111.449333,19.452332 111.432,19.721 C111.414667,19.989668 111.397333,20.227999 111.38,20.436 L102.592,20.436 C102.678667,21.2333373 103.05133,21.8659977 103.71,22.334 C104.36867,22.8020023 105.252661,23.036 106.362,23.036 C107.07267,23.036 107.77033,22.9710007 108.455,22.841 C109.13967,22.7109994 109.698665,22.5506676 110.132,22.36 L110.652,25.506 C110.443999,25.6100005 110.166668,25.7139995 109.82,25.818 C109.473332,25.9220005 109.087669,26.0129996 108.663,26.091 C108.238331,26.1690004 107.783336,26.2339997 107.298,26.286 C106.812664,26.3380003 106.327336,26.364 105.842,26.364 C104.611327,26.364 103.541005,26.1820018 102.631,25.818 C101.720995,25.4539982 100.967003,24.9556698 100.369,24.323 C99.770997,23.6903302 99.3290014,22.940671 99.043,22.074 C98.7569986,21.207329 98.614,20.2713384 98.614,19.266 Z M107.714,17.784 C107.696667,17.454665 107.640334,17.1340016 107.545,16.822 C107.449666,16.5099984 107.302334,16.2326679 107.103,15.99 C106.903666,15.7473321 106.652335,15.5480008 106.349,15.392 C106.045665,15.2359992 105.668669,15.158 105.218,15.158 C104.784665,15.158 104.412002,15.2316659 104.1,15.379 C103.787998,15.5263341 103.528001,15.7213321 103.32,15.964 C103.111999,16.2066679 102.951667,16.4883317 102.839,16.809 C102.726333,17.1296683 102.644,17.454665 102.592,17.784 L107.714,17.784 Z M117.244,23.218 C117.95467,23.218 118.457332,23.1486674 118.752,23.01 C119.046668,22.8713326 119.194,22.6026687 119.194,22.204 C119.194,21.8919984 119.003335,21.6190012 118.622,21.385 C118.240665,21.1509988 117.660004,20.8866681 116.88,20.592 C116.27333,20.3666655 115.723002,20.1326679 115.229,19.89 C114.734998,19.6473321 114.314668,19.3570017 113.968,19.019 C113.621332,18.6809983 113.352668,18.2780023 113.162,17.81 C112.971332,17.3419977 112.876,16.77867 112.876,16.12 C112.876,14.8373269 113.352662,13.8233371 114.306,13.078 C115.259338,12.3326629 116.567992,11.96 118.232,11.96 C119.064004,11.96 119.86133,12.0336659 120.624,12.181 C121.386671,12.3283341 121.993331,12.4886658 122.444,12.662 L121.768,15.678 C121.317331,15.5219992 120.827669,15.3833339 120.299,15.262 C119.770331,15.1406661 119.17667,15.08 118.518,15.08 C117.304661,15.08 116.698,15.4179966 116.698,16.094 C116.698,16.2500008 116.724,16.3886661 116.776,16.51 C116.828,16.6313339 116.931999,16.7483328 117.088,16.861 C117.244001,16.9736672 117.456332,17.0949994 117.725,17.225 C117.993668,17.3550007 118.335998,17.4979992 118.752,17.654 C119.601338,17.9660016 120.303331,18.2736652 120.858,18.577 C121.412669,18.8803349 121.850332,19.2096649 122.171,19.565 C122.491668,19.9203351 122.716999,20.3146645 122.847,20.748 C122.977001,21.1813355 123.042,21.6839971 123.042,22.256 C123.042,23.6080068 122.535005,24.6306632 121.521,25.324 C120.506995,26.0173368 119.072676,26.364 117.218,26.364 C116.004661,26.364 114.995004,26.260001 114.189,26.052 C113.382996,25.843999 112.824002,25.6706674 112.512,25.532 L113.162,22.386 C113.82067,22.6460013 114.496663,22.8496659 115.19,22.997 C115.883337,23.1443341 116.567997,23.218 117.244,23.218 Z M138.514,23.4 C138.340666,22.9666645 138.093668,22.3946702 137.773,21.684 C137.452332,20.9733298 137.092669,20.1976709 136.694,19.357 C136.295331,18.5163291 135.888002,17.6496711 135.472,16.757 C135.055998,15.8643289 134.657335,15.0280039 134.276,14.248 C133.894665,13.4679961 133.556668,12.7833363 133.262,12.194 C132.967332,11.6046637 132.750667,11.1886679 132.612,10.946 C132.386666,13.1126775 132.209001,15.465654 132.079,18.005 C131.948999,20.544346 131.832001,23.2093194 131.728,26 L129.986,26 C130.142001,22.7239836 130.319666,19.5866817 130.519,16.588 C130.718334,13.5893183 130.965332,10.7206804 131.26,7.982 L132.82,7.982 C133.340003,8.848671 133.894664,9.84966099 134.484,10.985 C135.073336,12.120339 135.65833,13.2989939 136.239,14.521 C136.81967,15.7430061 137.382997,16.9476607 137.929,18.135 C138.475003,19.3223393 138.955998,20.3926619 139.372,21.346 C139.788002,20.3926619 140.268997,19.3223393 140.815,18.135 C141.361003,16.9476607 141.92433,15.7430061 142.505,14.521 C143.08567,13.2989939 143.670664,12.120339 144.26,10.985 C144.849336,9.84966099 145.403997,8.848671 145.924,7.982 L147.406,7.982 C147.700668,10.7206804 147.947666,13.5893183 148.147,16.588 C148.346334,19.5866817 148.523999,22.7239836 148.68,26 L146.886,26 C146.782,23.2093194 146.665001,20.544346 146.535,18.005 C146.404999,15.465654 146.227334,13.1126775 146.002,10.946 C145.863333,11.1886679 145.646668,11.6046637 145.352,12.194 C145.057332,12.7833363 144.719335,13.4679961 144.338,14.248 C143.956665,15.0280039 143.558002,15.8643289 143.142,16.757 C142.725998,17.6496711 142.318669,18.5163291 141.92,19.357 C141.521331,20.1976709 141.161668,20.9733298 140.841,21.684 C140.520332,22.3946702 140.273334,22.9666645 140.1,23.4 L138.514,23.4 Z M155.922,24.778 C156.58067,24.778 157.156998,24.7563336 157.651,24.713 C158.145003,24.6696665 158.565332,24.6133337 158.912,24.544 L158.912,19.812 C158.721332,19.7253329 158.418002,19.6343338 158.002,19.539 C157.585998,19.4436662 157.014004,19.396 156.286,19.396 C155.869998,19.396 155.436669,19.426333 154.986,19.487 C154.535331,19.547667 154.119335,19.6776657 153.738,19.877 C153.356665,20.0763343 153.044668,20.3493316 152.802,20.696 C152.559332,21.0426684 152.438,21.5019971 152.438,22.074 C152.438,22.5766692 152.520333,23.0013316 152.685,23.348 C152.849668,23.6946684 153.083665,23.971999 153.387,24.18 C153.690335,24.388001 154.054331,24.5396662 154.479,24.635 C154.903669,24.7303338 155.384664,24.778 155.922,24.778 Z M155.766,12.246 C156.650004,12.246 157.399664,12.3716654 158.015,12.623 C158.630336,12.8743346 159.128665,13.2209978 159.51,13.663 C159.891335,14.1050022 160.168666,14.6293303 160.342,15.236 C160.515334,15.8426697 160.602,16.5013298 160.602,17.212 L160.602,25.688 C160.428666,25.7400003 160.177335,25.796333 159.848,25.857 C159.518665,25.917667 159.137336,25.9826663 158.704,26.052 C158.270665,26.1213337 157.789669,26.1776665 157.261,26.221 C156.732331,26.2643336 156.190669,26.286 155.636,26.286 C154.92533,26.286 154.271003,26.2080008 153.673,26.052 C153.074997,25.8959992 152.555002,25.6490017 152.113,25.311 C151.670998,24.9729983 151.324335,24.5396693 151.073,24.011 C150.821665,23.4823307 150.696,22.8366705 150.696,22.074 C150.696,21.3459964 150.834665,20.7220026 151.112,20.202 C151.389335,19.6819974 151.779331,19.2530017 152.282,18.915 C152.784669,18.5769983 153.382663,18.3300008 154.076,18.174 C154.769337,18.0179992 155.523329,17.94 156.338,17.94 C156.580668,17.94 156.836332,17.9529999 157.105,17.979 C157.373668,18.0050001 157.633665,18.0396665 157.885,18.083 C158.136335,18.1263336 158.352999,18.1696665 158.535,18.213 C158.717001,18.2563336 158.842666,18.2953332 158.912,18.33 L158.912,17.498 C158.912,17.0299977 158.877334,16.5750022 158.808,16.133 C158.738666,15.6909978 158.587001,15.2923351 158.353,14.937 C158.118999,14.5816649 157.789669,14.2956678 157.365,14.079 C156.940331,13.8623323 156.381337,13.754 155.688,13.754 C154.699995,13.754 153.963336,13.8233326 153.478,13.962 C152.992664,14.1006674 152.637334,14.2133329 152.412,14.3 L152.178,12.818 C152.472668,12.6793326 152.927664,12.5493339 153.543,12.428 C154.158336,12.3066661 154.899329,12.246 155.766,12.246 Z M165.374,12.558 L170.73,12.558 L170.73,13.988 L165.374,13.988 L165.374,21.138 C165.374,21.9006705 165.438999,22.520331 165.569,22.997 C165.699001,23.4736691 165.885332,23.8419987 166.128,24.102 C166.370668,24.3620013 166.665332,24.5353329 167.012,24.622 C167.358668,24.7086671 167.739998,24.752 168.156,24.752 C168.86667,24.752 169.438665,24.6696675 169.872,24.505 C170.305336,24.3403325 170.643332,24.1886674 170.886,24.05 L171.302,25.454 C171.059332,25.6100008 170.63467,25.7876657 170.028,25.987 C169.42133,26.1863343 168.76267,26.286 168.052,26.286 C167.219996,26.286 166.522336,26.1776678 165.959,25.961 C165.395664,25.7443323 164.945002,25.4150022 164.607,24.973 C164.268998,24.5309978 164.030667,23.98067 163.892,23.322 C163.753333,22.66333 163.684,21.8833378 163.684,20.982 L163.684,8.606 L165.374,8.294 L165.374,12.558 Z M171.914,19.266 C171.914,18.0873274 172.082998,17.0603377 172.421,16.185 C172.759002,15.3096623 173.200997,14.5773363 173.747,13.988 C174.293003,13.3986637 174.916997,12.9610014 175.619,12.675 C176.321004,12.3889986 177.044663,12.246 177.79,12.246 C179.436675,12.246 180.749662,12.783328 181.729,13.858 C182.708338,14.932672 183.198,16.5879888 183.198,18.824 C183.198,18.9626674 183.193667,19.1013326 183.185,19.24 C183.176333,19.3786674 183.163333,19.5086661 183.146,19.63 L173.708,19.63 C173.76,21.2766749 174.16733,22.5419956 174.93,23.426 C175.692671,24.3100044 176.905992,24.752 178.57,24.752 C179.488671,24.752 180.216664,24.6653342 180.754,24.492 C181.291336,24.3186658 181.681332,24.1713339 181.924,24.05 L182.236,25.506 C181.993332,25.6446674 181.538337,25.8093324 180.871,26 C180.203663,26.1906676 179.419338,26.286 178.518,26.286 C177.339327,26.286 176.334004,26.1126684 175.502,25.766 C174.669996,25.4193316 173.985336,24.9340031 173.448,24.31 C172.910664,23.6859969 172.520668,22.9450043 172.278,22.087 C172.035332,21.2289957 171.914,20.2886718 171.914,19.266 Z M181.456,18.2 C181.421333,16.795993 181.092003,15.7040039 180.468,14.924 C179.843997,14.1439961 178.960006,13.754 177.816,13.754 C177.20933,13.754 176.667669,13.8753321 176.191,14.118 C175.714331,14.3606679 175.298335,14.6856646 174.943,15.093 C174.587665,15.5003354 174.310334,15.972664 174.111,16.51 C173.911666,17.047336 173.794667,17.6106637 173.76,18.2 L181.456,18.2 Z" id="Trades-Mate" fill="#5191FF"></path>
                <g id="flaticon1521723453-svg" fill-rule="nonzero">
                    <path d="M26.7232653,5.17497436 C26.6326531,5.08307692 26.52,5.01661538 26.3983673,4.97805128 L19.0718367,2.66584615 C16.1420408,1.74112821 14.2359184,3.35425641 13.722449,3.872 C13.4228571,4.17312821 13.1934694,4.49066667 13.0759184,4.76717949 L9.8122449,12.4832821 C9.62530612,12.9247179 9.68897959,13.5130256 9.98204082,14.0996923 C10.4016327,14.9374359 11.157551,15.5413333 12.0612245,15.7587692 C13.0726531,16.0024615 14.1216327,15.6717949 14.9428571,14.8471795 C15.157551,14.6313846 15.3404082,14.3934359 15.4481633,14.1915897 L16.5453061,12.1460513 C16.7257143,11.8071795 16.9877551,11.456 17.2636735,11.1786667 C18.204898,10.2317949 18.6522449,10.6650256 18.842449,10.8488205 C20.4840816,12.4414359 29.0906122,21.1290256 29.0906122,21.1290256 C29.3967347,21.4367179 29.3330612,22.0201026 28.9502041,22.4041026 C28.5681633,22.7872821 27.9869388,22.8529231 27.6816327,22.5468718 L25.2636735,20.1173333 C24.9518367,19.8030769 24.4489796,19.8030769 24.1371429,20.1173333 C23.8253061,20.4283077 23.8253061,20.9362051 24.1371429,21.2488205 L26.555102,23.68 C26.8604082,23.9860513 26.7967347,24.5694359 26.4146939,24.9526154 C26.0326531,25.3374359 25.4506122,25.4014359 25.1469388,25.0953846 L22.7281633,22.6658462 C22.4163265,22.3524103 21.9118367,22.3524103 21.6016327,22.6658462 C21.2897959,22.9768205 21.2897959,23.4847179 21.6016327,23.7981538 L24.0195918,26.2285128 C24.324898,26.5353846 24.2587755,27.1187692 23.877551,27.5027692 C23.4963265,27.8859487 22.9159184,27.9515897 22.6097959,27.6438974 L20.1918367,25.214359 C19.8816327,24.9017436 19.3763265,24.9017436 19.0653061,25.214359 C18.755102,25.5269744 18.755102,26.0348718 19.0653061,26.3458462 L21.4832653,28.7770256 C21.7893878,29.0847179 21.7240816,29.6681026 21.3428571,30.0521026 C20.9591837,30.4361026 20.3787755,30.5009231 20.0742857,30.1940513 L17.1306122,27.2328205 C17.5510204,26.5977436 17.4367347,25.6763077 16.8130612,25.0469744 C16.1142857,24.3454359 15.0391837,24.2806154 14.4171429,24.9074872 C15.0391837,24.2814359 14.9779592,23.2024615 14.277551,22.4992821 C13.5771429,21.7969231 12.5044898,21.7321026 11.882449,22.3573333 C12.5044898,21.7321026 12.4416327,20.6539487 11.7404082,19.9515897 C11.0416327,19.2475897 9.96897959,19.1835897 9.34530612,19.8088205 C9.96897959,19.1835897 9.9044898,18.1054359 9.20489796,17.4006154 C8.55020408,16.7425641 7.57469388,16.6531282 6.94040816,17.1544615 L2.17387755,12.3634872 C1.86285714,12.0500513 1.35755102,12.0500513 1.04653061,12.3634872 C0.736326531,12.6752821 0.736326531,13.1831795 1.04653061,13.4966154 L5.80081633,18.2744615 L4.39102041,19.6914872 C3.76897959,20.3158974 3.83183673,21.3940513 4.53306122,22.0988718 C5.23183673,22.8012308 6.3044898,22.8660513 6.92734694,22.24 C6.3044898,22.8660513 6.36816327,23.9433846 7.06857143,24.6473846 C7.76734694,25.3489231 8.84081633,25.4153846 9.46367347,24.7893333 C8.84081633,25.4153846 8.90367347,26.4927179 9.60408163,27.1958974 C10.3044898,27.8998974 11.3771429,27.9638974 11.9991837,27.3386667 C11.3771429,27.9630769 11.44,29.0404103 12.1404082,29.7452308 C12.84,30.4475897 13.9118367,30.5124103 14.5355102,29.886359 L16.0244898,28.3905641 L18.9477551,31.328 C19.8808163,32.2658462 21.4587755,32.2002051 22.4693878,31.1860513 C22.9616327,30.6912821 23.2244898,30.0594872 23.2612245,29.4342564 C23.8832653,29.3973333 24.5126531,29.1323077 25.0040816,28.6367179 C25.4971429,28.1419487 25.7616327,27.5101538 25.7991837,26.8849231 C26.4204082,26.848 27.0473469,26.5837949 27.5420408,26.0882051 C28.0342857,25.5926154 28.2979592,24.961641 28.3338776,24.3355897 C28.9567347,24.2994872 29.5853061,24.0352821 30.0783673,23.5380513 C31.0873469,22.5238974 31.1493878,20.9353846 30.2187755,19.9991795 L28.9861224,18.7593846 L34.0473469,13.6730256 C34.3583673,13.3612308 34.3583673,12.8533333 34.0473469,12.5407179 L26.7232653,5.17497436 Z" id="Shape" fill="#5191FF"></path>
                    <path d="M38.7183673,6.96533333 L32.2685714,0.482461538 C31.6465306,-0.143589744 30.6367347,-0.143589744 30.0138776,0.482461538 L27.7591837,2.74707692 C27.1371429,3.37230769 27.1371429,4.38728205 27.7591837,5.01251282 L34.2097959,11.4970256 C34.8326531,12.1222564 35.842449,12.1222564 36.4644898,11.4970256 L38.7183673,9.23158974 C39.3395918,8.60553846 39.3395918,7.5905641 38.7183673,6.96533333 Z M35.3330612,10.2670769 C34.6114286,10.2670769 34.0253061,9.67876923 34.0253061,8.95261538 C34.0253061,8.22646154 34.6114286,7.63733333 35.3330612,7.63733333 C36.0555102,7.63733333 36.6416327,8.22564103 36.6416327,8.95261538 C36.6408163,9.67794872 36.0555102,10.2670769 35.3330612,10.2670769 Z" id="Shape" fill="#99A4B8"></path>
                </g>
            </g>
        </g>
    </g>
</svg>