<?xml version="1.0" encoding="UTF-8"?>
<svg width="19px" height="19px" viewBox="0 0 19 19" version="1.1" xmlns="http://www.w3.org/2000/svg" xmlns:xlink="http://www.w3.org/1999/xlink">
    <!-- Generator: Sketch 49.2 (51160) - http://www.bohemiancoding.com/sketch -->
    <title>manage_comp</title>
    <desc>Created with Sketch.</desc>
    <defs></defs>
    <g id="Page-1" stroke="none" stroke-width="1" fill="none" fill-rule="evenodd">
        <g id="TradeMate-Clients" transform="translate(-572.000000, -98.000000)" fill="#FFFFFF" fill-rule="nonzero">
            <g id="manage" transform="translate(569.000000, 95.000000)">
                <g id="manage_comp" transform="translate(3.600000, 3.600000)">
                    <path d="M1.16408388,6.42030301 C1.25728667,6.73985545 1.38662933,7.0479953 1.55020974,7.33711417 L1.08419577,7.9248624 C0.932027942,8.11697429 0.949146823,8.39087637 1.12033563,8.56396728 L1.92302092,9.36665257 C2.09611182,9.53974347 2.37001391,9.55494123 2.56212579,9.4027734 L3.14606983,8.94056363 C3.44660129,9.11367355 3.76615373,9.24870348 4.09902085,9.34380837 L4.18651735,10.095137 C4.21504882,10.3386055 4.42047538,10.5212069 4.66394391,10.5212069 L5.79949632,10.5212069 C6.04296484,10.5212069 6.24839141,10.3385865 6.27692288,10.095137 L6.36061518,9.37043774 C6.71820957,9.27723495 7.06058719,9.1383818 7.38204172,8.95768251 L7.94696478,9.4046755 C8.13907666,9.55684333 8.41297875,9.53972445 8.58606965,9.36853564 L9.38875494,8.56585035 C9.56184585,8.39275945 9.57706263,8.11885736 9.4248948,7.92674548 L8.9855102,7.36943081 C9.16811159,7.05366355 9.31076893,6.71701125 9.40587382,6.36512315 L10.0830207,6.28713714 C10.3265082,6.25860567 10.5090906,6.05317911 10.5090906,5.80971058 L10.5090906,4.67415817 C10.5090906,4.43068965 10.3264892,4.22526308 10.0830207,4.19673161 L9.41538431,4.1187456 C9.3240646,3.7706617 9.18713257,3.43779458 9.01215859,3.12585053 L9.42301173,2.60657782 C9.57517955,2.41446594 9.55806067,2.14056385 9.38687187,1.96747294 L8.58608868,1.16668975 C8.41299777,0.993598849 8.13909568,0.978382067 7.9469838,1.13054989 L7.44292787,1.52999044 C7.11576704,1.33787856 6.76576202,1.19141702 6.39867616,1.09250794 L6.32259224,0.440088378 C6.29406078,0.196619854 6.08863421,0.0140184611 5.84516569,0.0140184611 L4.70961328,0.0140184611 C4.46614475,0.0140184611 4.26071819,0.196619854 4.23218672,0.440088378 L4.1561028,1.09250794 C3.77948743,1.19331912 3.41999094,1.34548695 3.08522172,1.54520722 L2.56214481,1.13054989 C2.37003293,0.978382067 2.09613084,0.995500947 1.92303994,1.16668975 L1.12035465,1.96937504 C0.947263746,2.14246595 0.932046963,2.41636803 1.08421479,2.60847992 L1.52169729,3.16199039 C1.34670429,3.47773863 1.21355744,3.81440995 1.12606094,4.16439595 L0.426088937,4.24428406 C0.182620414,4.27281553 1.90209784e-05,4.47824209 1.90209784e-05,4.72171062 L1.90209784e-05,5.85726303 C1.90209784e-05,6.10073155 0.182620414,6.30615812 0.426088937,6.33468959 L1.16408388,6.42030301 Z M5.27832151,3.348415 C6.31306273,3.348415 7.15569208,4.19104434 7.15569208,5.22578557 C7.15569208,6.26052679 6.31306273,7.10315614 5.27832151,7.10315614 C4.2435993,7.10315614 3.40095094,6.26052679 3.40095094,5.22578557 C3.40095094,4.19104434 4.24358028,3.348415 5.27832151,3.348415 Z" id="Shape"></path>
                    <path d="M16.5044839,6.69991139 L15.9053231,6.19395337 C15.7208387,6.03798134 15.4488196,6.04558974 15.2738457,6.21107225 L14.9428806,6.5211142 C14.6632913,6.38606525 14.366564,6.29096036 14.0603072,6.23579952 L13.9671425,5.77929604 C13.91959,5.54343591 13.7008488,5.37985549 13.4611464,5.39887647 L12.6793842,5.46544989 C12.4397199,5.48637297 12.2514122,5.68228905 12.2438038,5.92385547 L12.228606,6.38796735 C11.9280556,6.49638692 11.644643,6.64475056 11.3859577,6.83115614 L10.9903403,6.56866664 C10.7886799,6.43551979 10.5205032,6.47356175 10.3645502,6.65806524 L9.85859213,7.26103026 C9.70260109,7.44553375 9.71020948,7.71753374 9.87567297,7.89252674 L10.2218738,8.2615147 C10.1020226,8.53161259 10.0164282,8.81504419 9.96699269,9.10604614 L9.47244725,9.20685733 C9.23658712,9.25440977 9.0730067,9.47315102 9.09202768,9.71283437 L9.15860111,10.4945966 C9.17952418,10.7342609 9.37544026,10.9225686 9.61700668,10.930177 L10.1514962,10.9472769 C10.2485412,11.202158 10.3759627,11.4437434 10.5300136,11.670074 L10.2314033,12.1208712 C10.0982565,12.3224936 10.1362984,12.5906894 10.3207829,12.7466614 L10.9199437,13.2526194 C11.1044662,13.4085915 11.3764472,13.4009831 11.5514592,13.2355006 L11.9432914,12.8683957 C12.2000746,12.9882278 12.4701534,13.0776264 12.7478597,13.1308852 L12.8562983,13.6672768 C12.9038508,13.9031369 13.122592,14.0667173 13.3622564,14.0476963 L14.1440186,13.9811229 C14.3836829,13.9601998 14.5719906,13.7643028 14.579599,13.5227173 L14.5967179,12.9977193 C14.8820325,12.8969081 15.1521114,12.7599571 15.4012862,12.5906894 L15.8330815,12.8760041 C16.0347038,13.0091509 16.3028806,12.971109 16.4588716,12.7866055 L16.9648297,12.1874446 C17.1207827,12.0029412 17.1131743,11.7309412 16.9477108,11.5559482 L16.5996079,11.1869602 C16.7270674,10.9168623 16.8202893,10.6315476 16.8735099,10.3386055 L17.3490344,10.2415986 C17.5848945,10.1940461 17.748475,9.97530486 17.729454,9.73562151 L17.6628806,8.95385929 C17.6419575,8.71419497 17.4460414,8.52588728 17.204475,8.51827889 L16.7270484,8.50306211 C16.6281203,8.22535582 16.4949735,7.96288534 16.32951,7.71939779 L16.5900783,7.32756564 C16.7270484,7.12598131 16.6890065,6.85588342 16.5044839,6.69991139 Z M13.5581724,11.2192768 C12.713641,11.2915756 11.9679806,10.6619622 11.897622,9.81744976 C11.8253233,8.97291831 12.4549557,8.22727694 13.2994491,8.15689932 C14.1439805,8.0846196 14.8896409,8.71423301 14.9599995,9.55874543 C15.0322983,10.4032959 14.4026658,11.1489182 13.5581724,11.2192768 Z" id="Shape"></path>
                    <path d="M3.89930057,13.3230161 C3.65963625,13.3477433 3.47513276,13.5493467 3.47323066,13.7909321 L3.46752436,14.2721629 C3.46372017,14.5137293 3.64251737,14.7191559 3.88218169,14.7496085 L4.23597189,14.7952398 C4.29493693,15.0101959 4.37862923,15.2156224 4.48704881,15.4096364 L4.25879707,15.6911469 C4.10662924,15.8794356 4.11804183,16.1495525 4.28732853,16.3226434 L4.62399985,16.6669231 C4.79328656,16.840014 5.06338445,16.859035 5.25549634,16.7106714 L5.53888989,16.4919301 C5.73861017,16.6098602 5.94976205,16.703082 6.17038638,16.7677343 L6.20842833,17.1329371 C6.2331556,17.3726014 6.43477798,17.5571049 6.6763444,17.559007 L7.15759418,17.5647133 C7.39914158,17.5685175 7.60458717,17.3897203 7.63502073,17.150056 L7.67876898,16.8038741 C7.91845233,16.7448901 8.14670407,16.6555105 8.36352421,16.5375804 L8.62981791,16.7525175 C8.81812559,16.9046853 9.08824251,16.8932727 9.26133341,16.723986 L9.60561312,16.3873147 C9.77870402,16.218047 9.797725,15.9479301 9.64938039,15.7558182 L9.44581788,15.4914076 C9.57135634,15.2821769 9.66838235,15.0596314 9.73495577,14.8256734 L10.050704,14.7933377 C10.2903683,14.7686104 10.4748528,14.5669881 10.4767739,14.3254216 L10.4824612,13.8441719 C10.4862844,13.6026245 10.3074872,13.3971789 10.0678229,13.3667453 L9.75966402,13.3268013 C9.70069899,13.0947453 9.61322151,12.8702978 9.49909564,12.661067 L9.69120752,12.4252069 C9.84337535,12.2368992 9.83196276,11.9668013 9.66267605,11.7937104 L9.32602376,11.4494307 C9.15673705,11.2763208 8.88660111,11.2572998 8.69450825,11.4056824 L8.46433539,11.5825775 C8.24751526,11.4513328 8.0154403,11.3505216 7.7719908,11.2820461 L7.74153821,10.9834167 C7.71681094,10.7437334 7.51520759,10.5592489 7.27362214,10.5573468 L6.79239139,10.5516405 C6.55082496,10.5478363 6.3453984,10.7266335 6.31494581,10.9662978 L6.27690385,11.2630441 C6.02584596,11.3276964 5.78427953,11.4266245 5.55983199,11.5559482 L5.32206976,11.3619342 C5.13376207,11.2097664 4.86364516,11.221198 4.69055426,11.3904656 L4.34437245,11.7290581 C4.17128154,11.8983258 4.15226057,12.1684427 4.3006242,12.3605355 L4.50414867,12.6230441 C4.3862186,12.8322748 4.29301581,13.0548013 4.23214868,13.2887783 L3.89930057,13.3230161 Z M7.00542635,12.7789971 C7.69588787,12.7866055 8.24937932,13.3553517 8.24178995,14.0458133 C8.23418155,14.7362748 7.66543528,15.2897662 6.97497376,15.2821769 C6.28451225,15.2745685 5.7310208,14.7058412 5.73861017,14.0153607 C5.74623758,13.3249182 6.31496483,12.7714077 7.00542635,12.7789971 Z" id="Shape"></path>
                </g>
            </g>
        </g>
    </g>
</svg>