<?xml version="1.0" encoding="UTF-8"?>
<svg width="18px" height="17px" viewBox="0 0 18 17" version="1.1" xmlns="http://www.w3.org/2000/svg" xmlns:xlink="http://www.w3.org/1999/xlink">
    <!-- Generator: Sketch 49.2 (51160) - http://www.bohemiancoding.com/sketch -->
    <title>flaticon1521710236-svg</title>
    <desc>Created with Sketch.</desc>
    <defs></defs>
    <g id="Page-1" stroke="none" stroke-width="1" fill="none" fill-rule="evenodd">
        <g id="TradeMate-Clients" transform="translate(-427.000000, -99.000000)" fill="#FFFFFF">
            <g id="members-" transform="translate(424.000000, 95.000000)">
                <g id="Group">
                    <g id="flaticon1521710236-svg" transform="translate(3.529412, 4.235294)">
                        <path d="M4.39389858,7.89906694 L4.455286,7.84162272 L4.51696552,7.89906694 C5.05645436,8.40701014 5.65455578,8.68707505 6.19842596,8.68707505 C6.76975254,8.68707505 7.3598215,8.43860446 7.90486004,7.96911968 L7.95047465,7.93051521 L8.07018256,7.9888357 C8.17163489,8.08133063 8.35360649,8.21408519 8.43573225,8.25410142 L8.54799189,8.30877079 L8.53572414,8.32103854 L8.57866126,8.34674239 C8.68172008,8.40754564 8.791643,8.46664503 8.91704665,8.5294929 C9.04332657,8.58528195 9.15208114,8.62773225 9.26784584,8.66570385 C9.29004462,8.67359026 9.82821907,8.84723732 10.4420933,9.13192698 L10.5517241,9.16527383 C11.1346369,9.38740771 11.3813063,9.70052738 11.3901176,9.71138337 C12.2951562,11.0543124 12.447432,13.9874726 12.4620852,14.3154402 C12.4553671,14.7737769 12.3252414,14.8930467 12.2905314,14.9155375 C10.2623611,15.823497 7.19795538,16.0594077 6.60496552,16.0968438 L6.58875456,16.0977688 L6.5715213,16.0933387 C6.55165923,16.0869128 6.53101826,16.0840406 6.50589858,16.0840406 L6.50560649,16.0840406 L6.48472211,16.0849168 C6.32275862,16.0963083 6.1883002,16.1016146 6.06318864,16.1016146 L5.96494929,16.1016146 C5.59560243,16.0793671 2.29148884,15.8630751 0.176957404,14.9223529 C0.134117647,14.9042434 0.00871399594,14.7598053 9.73630832e-05,14.3391968 C0.000389452333,14.3078945 0.109290061,11.1414523 1.05892089,9.73070994 C1.10526572,9.67229209 1.36395943,9.37173225 1.87988641,9.17413387 C2.33374442,9.03500203 3.45595132,8.66253955 4.06982556,8.21822312 C4.09567546,8.2024503 4.12142799,8.17616227 4.14859229,8.1486572 C4.19308722,8.09963489 4.28645842,7.99930223 4.39389858,7.89906694 Z" id="Shape" fill-rule="nonzero"></path>
                        <path d="M10.713931,8.69111562 L10.6300527,8.66687221 C10.4926734,8.60309939 10.3476511,8.54000811 10.1980041,8.47891278 C10.4090385,8.38008925 10.5821014,8.28306694 10.7107181,8.18950101 C10.7317972,8.17752535 10.7522434,8.15649493 10.7715213,8.13629209 C10.8183043,8.08649087 10.8802272,8.01935903 10.9532982,7.95110751 L10.9924868,7.91513185 L11.0305071,7.95193509 C11.4345152,8.33121298 11.8799513,8.53932657 12.2862961,8.53932657 C12.7136714,8.53932657 13.1545314,8.35428803 13.5602434,8.0041217 L13.589501,7.9801217 L13.6710913,8.01960243 C13.7459148,8.08873022 13.8818337,8.18706694 13.9426369,8.21744422 L14.012787,8.25137525 L14.0046085,8.26013793 L14.0490061,8.28589047 C14.126215,8.33174848 14.2086329,8.37590264 14.3010304,8.42146856 C14.395716,8.46357809 14.4769655,8.49570791 14.5623529,8.52379716 C14.579002,8.52939554 14.9762921,8.65708722 15.4346288,8.86933874 L15.5155862,8.89455578 C15.9333225,9.0537931 16.1149047,9.27334686 16.1327221,9.2961785 C16.8079838,10.2976552 16.9166897,12.4673428 16.9269128,12.7087546 C16.9219473,13.044073 16.8289655,13.130288 16.8056471,13.1452333 C15.5351562,13.713785 13.7116917,13.9271562 12.9443732,13.9950183 C12.8750507,12.9993347 12.629501,10.6537606 11.8086815,9.43360649 L11.7738742,9.39183773 C11.6075781,9.18572008 11.2433428,8.8939716 10.713931,8.69111562 Z" id="Path"></path>
                        <path d="M10.2386045,5.06643408 L10.2529655,5.04934686 C10.3172252,5.00241785 10.3488195,4.92963895 10.3365517,4.85452333 C10.1839351,3.93794726 10.2828073,3.55355781 10.3172738,3.45721704 C10.5833185,2.64092495 11.4204949,2.2604787 11.584211,2.19310345 C11.6175578,2.18049493 11.6812333,2.16136308 11.7490953,2.1499716 L11.7695416,2.14486004 L11.8958215,2.13828803 L11.8969899,2.14705071 L11.9349615,2.14369168 C11.9636349,2.14135497 11.9910913,2.13711968 12.0101258,2.13288438 L12.0524787,2.12339148 C12.0793996,2.12426775 12.4099959,2.16681542 12.8891197,2.31339554 L13.2264828,2.42959838 C13.8398215,2.61069371 14.123927,2.94893306 14.1765517,3.01747667 C14.6691116,3.57697363 14.5372819,4.41814199 14.4139229,4.87039351 C14.4004868,4.92637728 14.4086653,4.98323732 14.4408438,5.02967951 L14.4680568,5.0647789 C14.5028154,5.11112373 14.534069,5.29572414 14.4274077,5.69413387 C14.4075456,5.8148641 14.3625152,5.91178905 14.2982069,5.97624341 C14.2719189,6.00340771 14.2546369,6.03879919 14.248503,6.07969168 C14.0818661,7.05619473 13.2072049,8.14802434 12.2863935,8.14802434 C11.5035943,8.14802434 10.6114077,7.143286 10.4511968,6.07969168 C10.4447708,6.03909128 10.4275375,6.0036998 10.3986207,5.97137525 C10.3337282,5.90370791 10.2913266,5.80493306 10.2653306,5.6558215 C10.1874402,5.37955375 10.1792617,5.15620284 10.2386045,5.06643408 Z" id="Path"></path>
                        <path d="M3.43102637,4.01393915 L3.45220284,3.98940365 C3.53462069,3.92991481 3.57439351,3.8360568 3.55949696,3.7400568 C3.35279513,2.49809331 3.48754564,1.98143611 3.5343286,1.85179716 C3.89345233,0.74843002 5.02593103,0.23303854 5.24850304,0.141419878 C5.29499391,0.123407708 5.38150101,0.0974117647 5.47273022,0.0828073022 L5.49726572,0.0771115619 L5.6840568,0.0665963489 L5.68464097,0.0785720081 L5.72485193,0.074336714 C5.76228803,0.070831643 5.7985071,0.0654279919 5.84134686,0.0566653144 L5.88374848,0.0465882353 C5.9185071,0.0468803245 6.3555213,0.10198783 7.01501014,0.303675456 L7.46886815,0.459651116 C8.29757404,0.704762677 8.68376471,1.16368357 8.75449899,1.25491278 C9.42099797,2.01171602 9.24326166,3.1503286 9.07784178,3.76186613 C9.0588073,3.83230832 9.07024746,3.90596349 9.1099716,3.96574442 L9.14682353,4.01311156 C9.20762677,4.0945071 9.23045842,4.36697769 9.09483164,4.8712211 C9.06737525,5.03595943 9.00623124,5.16939554 8.91651116,5.25794726 C8.88404057,5.29304665 8.86257201,5.33875862 8.8533712,5.39006897 C8.62782961,6.71036105 7.44438134,8.1871643 6.19818256,8.1871643 C5.13882353,8.1871643 3.93093712,6.82831643 3.71298986,5.39099391 C3.70583367,5.33982961 3.68460852,5.29275456 3.64692901,5.25239757 C3.5564787,5.15853955 3.4984503,5.02335091 3.46305882,4.82253955 C3.35819878,4.44438134 3.34782961,4.14021907 3.43102637,4.01393915 Z" id="Path"></path>
                    </g>
                </g>
            </g>
        </g>
    </g>
</svg>