<?xml version="1.0" encoding="UTF-8"?>
<svg width="17px" height="13px" viewBox="0 0 17 13" version="1.1" xmlns="http://www.w3.org/2000/svg" xmlns:xlink="http://www.w3.org/1999/xlink">
    <!-- Generator: Sketch 49.2 (51160) - http://www.bohemiancoding.com/sketch -->
    <title>msges</title>
    <desc>Created with Sketch.</desc>
    <defs></defs>
    <g id="Page-1" stroke="none" stroke-width="1" fill="none" fill-rule="evenodd">
        <g id="TradeMate-Clients" transform="translate(-986.000000, -32.000000)" fill="#FFFFFF" fill-rule="nonzero">
            <g id="Group-9" transform="translate(977.000000, 18.000000)">
                <g id="Group-8">
                    <g id="Group-7" transform="translate(0.000000, 3.000000)">
                        <g id="msges" transform="translate(9.000000, 11.000000)">
                            <path d="M1.63047266,3.95868408 C1.84536328,4.10363281 2.49312305,4.53413086 3.57378516,5.24995605 C4.65448047,5.96578125 5.48236719,6.51694824 6.05747852,6.90348877 C6.12066406,6.94585938 6.2549043,7.03796387 6.46026563,7.1799292 C6.66566016,7.32198975 6.83632422,7.43678711 6.972125,7.52435303 C7.10802539,7.61188721 7.27231445,7.71008545 7.4651582,7.81878906 C7.65793555,7.92739746 7.83965625,8.0090918 8.01028711,8.06317383 C8.18095117,8.1177002 8.33893164,8.14470947 8.48426172,8.14470947 L8.49379102,8.14470947 L8.50335352,8.14470947 C8.64868359,8.14470947 8.80673047,8.11766846 8.97739453,8.06317383 C9.14795898,8.0090918 9.3298457,7.92730225 9.52245703,7.81878906 C9.71516797,7.7099585 9.87945703,7.61185547 10.0153574,7.52435303 C10.1512578,7.43678711 10.3217891,7.32198975 10.52725,7.1799292 C10.7325781,7.03783691 10.8669844,6.94585938 10.9301699,6.90348877 C11.5114902,6.51694824 12.990457,5.53525146 15.3666055,3.95849365 C15.8279297,3.65053711 16.2133516,3.27894531 16.5229707,2.84397217 C16.8328223,2.40918945 16.987582,1.95307861 16.987582,1.47589355 C16.987582,1.07713379 16.8374043,0.735788574 16.5371816,0.451889648 C16.2369922,0.167927246 15.8814531,0.0260253906 15.4707969,0.0260253906 L1.51668555,0.0260253906 C1.03009375,0.0260253906 0.655628906,0.183066406 0.393357422,0.497148438 C0.131119141,0.811293945 0,1.20395996 0,1.67511475 C0,2.05568848 0.173851563,2.4680957 0.521388672,2.91208252 C0.868892578,3.35610107 1.23870898,3.705 1.63047266,3.95868408 Z" id="Shape"></path>
                            <path d="M16.0395,4.92816162 C13.9668281,6.26913574 12.393,7.31129395 11.3187793,8.05441406 C10.9585586,8.30803467 10.6663379,8.50601807 10.441918,8.64788818 C10.217498,8.78985352 9.91903516,8.93483398 9.54609766,9.08276611 C9.17329297,9.23092041 8.82585547,9.30477539 8.50348633,9.30477539 L8.49382422,9.30477539 L8.48429492,9.30477539 C8.16199219,9.30477539 7.81435547,9.23092041 7.44155078,9.08276611 C7.06874609,8.93483398 6.77008398,8.78985352 6.54573047,8.64788818 C6.32144336,8.50601807 6.02912305,8.30803467 5.66893555,8.05441406 C4.81571484,7.45640137 3.24527344,6.41417969 0.957544922,4.92816162 C0.597224609,4.69875732 0.278076172,4.43580566 0,4.13984619 L0,11.3344385 C0,11.7333887 0.148451172,12.0745435 0.445519531,12.3584741 C0.742521484,12.6425 1.0996543,12.7844653 1.51678516,12.7844653 L15.4709297,12.7844653 C15.8879609,12.7844653 16.2450605,12.6425 16.5420957,12.3584741 C16.8392305,12.0744482 16.9876152,11.7334204 16.9876152,11.3344385 L16.9876152,4.13984619 C16.7158145,4.42968018 16.3999199,4.69263184 16.0395,4.92816162 Z" id="Shape"></path>
                        </g>
                    </g>
                </g>
            </g>
        </g>
    </g>
</svg>