<?xml version="1.0" encoding="UTF-8"?>
<svg width="24px" height="28px" viewBox="0 0 24 28" version="1.1" xmlns="http://www.w3.org/2000/svg" xmlns:xlink="http://www.w3.org/1999/xlink">
    <!-- Generator: Sketch 49.3 (51167) - http://www.bohemiancoding.com/sketch -->
    <title>pdf</title>
    <desc>Created with Sketch.</desc>
    <defs></defs>
    <g id="Page-1" stroke="none" stroke-width="1" fill="none" fill-rule="evenodd">
        <g id="Client:-Lee" transform="translate(-336.000000, -638.000000)" fill-rule="nonzero">
            <g id="pdf" transform="translate(336.000000, 638.000000)">
                <path d="M5.14285714,0 C4.2,0 3.42857143,0.771428571 3.42857143,1.71428571 L3.42857143,25.7142857 C3.42857143,26.6571429 4.2,27.4285714 5.14285714,27.4285714 L22.2857143,27.4285714 C23.2285714,27.4285714 24,26.6571429 24,25.7142857 L24,6.85714286 L17.1428571,0 L5.14285714,0 Z" id="Shape" fill="#FFFFFF"></path>
                <path d="M18.8571429,6.85714286 L24,6.85714286 L17.1428571,0 L17.1428571,5.14285714 C17.1428571,6.08571429 17.9142857,6.85714286 18.8571429,6.85714286 Z" id="Shape" fill="#B0B7BD"></path>
                <polygon id="Shape" fill="#DEE7F0" points="24 12 18.8571429 6.85714286 24 6.85714286"></polygon>
                <path d="M20.5714286,22.2857143 C20.5714286,22.7571429 20.1857143,23.1428571 19.7142857,23.1428571 L0.857142857,23.1428571 C0.385714286,23.1428571 0,22.7571429 0,22.2857143 L0,13.7142857 C0,13.2428571 0.385714286,12.8571429 0.857142857,12.8571429 L19.7142857,12.8571429 C20.1857143,12.8571429 20.5714286,13.2428571 20.5714286,13.7142857 L20.5714286,22.2857143 Z" id="Shape" fill="#F15642"></path>
                <g id="Group" transform="translate(3.696429, 15.750000)" fill="#FFFFFF">
                    <path d="M0.0398571429,0.490285714 C0.0398571429,0.264 0.218142857,0.0171428571 0.505285714,0.0171428571 L2.08842857,0.0171428571 C2.97985714,0.0171428571 3.78214286,0.613714286 3.78214286,1.75714286 C3.78214286,2.84057143 2.97985714,3.444 2.08842857,3.444 L0.944142857,3.444 L0.944142857,4.34914286 C0.944142857,4.65085714 0.752142857,4.82142857 0.505285714,4.82142857 C0.279,4.82142857 0.0398571429,4.65085714 0.0398571429,4.34914286 L0.0398571429,0.490285714 Z M0.944142857,0.880285714 L0.944142857,2.58771429 L2.08842857,2.58771429 C2.54785714,2.58771429 2.91128571,2.18228571 2.91128571,1.75714286 C2.91128571,1.278 2.54785714,0.880285714 2.08842857,0.880285714 L0.944142857,0.880285714 Z" id="Shape"></path>
                    <path d="M5.12442857,4.82142857 C4.89814286,4.82142857 4.65128571,4.698 4.65128571,4.39714286 L4.65128571,0.504 C4.65128571,0.258 4.89814286,0.0788571429 5.12442857,0.0788571429 L6.69385714,0.0788571429 C9.82585714,0.0788571429 9.75728571,4.82142857 6.75557143,4.82142857 L5.12442857,4.82142857 Z M5.55642857,0.915428571 L5.55642857,3.98571429 L6.69385714,3.98571429 C8.54442857,3.98571429 8.62671429,0.915428571 6.69385714,0.915428571 L5.55642857,0.915428571 Z" id="Shape"></path>
                    <path d="M10.8681429,0.970285714 L10.8681429,2.05971429 L12.6158571,2.05971429 C12.8627143,2.05971429 13.1095714,2.30657143 13.1095714,2.54571429 C13.1095714,2.772 12.8627143,2.95714286 12.6158571,2.95714286 L10.8681429,2.95714286 L10.8681429,4.39628571 C10.8681429,4.63628571 10.6975714,4.82057143 10.4575714,4.82057143 C10.1558571,4.82057143 9.97157143,4.63628571 9.97157143,4.39628571 L9.97157143,0.503142857 C9.97157143,0.257142857 10.1567143,0.078 10.4575714,0.078 L12.8635714,0.078 C13.1652857,0.078 13.3435714,0.257142857 13.3435714,0.503142857 C13.3435714,0.722571429 13.1652857,0.969428571 12.8635714,0.969428571 L10.8681429,0.969428571 L10.8681429,0.970285714 Z" id="Shape"></path>
                </g>
                <path d="M19.7142857,23.1428571 L3.42857143,23.1428571 L3.42857143,24 L19.7142857,24 C20.1857143,24 20.5714286,23.6142857 20.5714286,23.1428571 L20.5714286,22.2857143 C20.5714286,22.7571429 20.1857143,23.1428571 19.7142857,23.1428571 Z" id="Shape" fill="#CAD1D8"></path>
            </g>
        </g>
    </g>
</svg>