<?xml version="1.0" encoding="UTF-8"?>
<svg width="20px" height="20px" viewBox="0 0 20 20" version="1.1" xmlns="http://www.w3.org/2000/svg" xmlns:xlink="http://www.w3.org/1999/xlink">
    <!-- Generator: Sketch 49.2 (51160) - http://www.bohemiancoding.com/sketch -->
    <title>flaticon1521788649-svg</title>
    <desc>Created with Sketch.</desc>
    <defs></defs>
    <g id="Page-1" stroke="none" stroke-width="1" fill="none" fill-rule="evenodd">
        <g id="TradeMate-Clients" transform="translate(-891.000000, -94.000000)" fill="#99A4B8" fill-rule="nonzero">
            <g id="flaticon1521788649-svg" transform="translate(891.000000, 94.000000)">
                <path d="M19.3494737,18.2059649 L14.5922807,13.2582456 C15.8154386,11.8042105 16.485614,9.97473684 16.485614,8.07017544 C16.485614,3.62035088 12.8652632,0 8.4154386,0 C3.96561404,0 0.345263158,3.62035088 0.345263158,8.07017544 C0.345263158,12.52 3.96561404,16.1403509 8.4154386,16.1403509 C10.0859649,16.1403509 11.6778947,15.6364912 13.0389474,14.68 L17.8322807,19.6652632 C18.0326316,19.8733333 18.3021053,19.9880702 18.5908772,19.9880702 C18.8642105,19.9880702 19.1235088,19.8838596 19.3203509,19.694386 C19.7385965,19.2919298 19.7519298,18.6245614 19.3494737,18.2059649 Z M8.4154386,2.10526316 C11.7045614,2.10526316 14.3803509,4.78105263 14.3803509,8.07017544 C14.3803509,11.3592982 11.7045614,14.0350877 8.4154386,14.0350877 C5.12631579,14.0350877 2.45052632,11.3592982 2.45052632,8.07017544 C2.45052632,4.78105263 5.12631579,2.10526316 8.4154386,2.10526316 Z" id="Shape"></path>
            </g>
        </g>
    </g>
</svg>